<svg xmlns="http://www.w3.org/2000/svg" width="51" height="51" viewBox="0 0 51 51">
  <defs>
    <style>
      .cls-1 {
        fill: #cac5a2;
        fill-rule: evenodd;
      }
    </style>
  </defs>
  <path id="circle" class="cls-1" d="M0,25.5A25.5,25.5,0,1,0,25.5,0,25.529,25.529,0,0,0,0,25.5Zm2.04,0A23.46,23.46,0,1,1,25.5,48.96,23.487,23.487,0,0,1,2.04,25.5Z"/>
  <path id="IG" class="cls-1" d="M31.573,15h-11.9A4.194,4.194,0,0,0,15.5,19.212V31.787A4.2,4.2,0,0,0,19.677,36h11.9a4.2,4.2,0,0,0,4.177-4.212V19.212A4.2,4.2,0,0,0,31.573,15M33.6,31.219a2.606,2.606,0,0,1-2.594,2.616H20.241a2.606,2.606,0,0,1-2.594-2.616V19.781a2.606,2.606,0,0,1,2.594-2.616H31.01A2.606,2.606,0,0,1,33.6,19.781V31.219ZM25.625,19.258A6.243,6.243,0,1,0,31.814,25.5a6.224,6.224,0,0,0-6.189-6.242m0,10.32A4.078,4.078,0,1,1,29.669,25.5a4.065,4.065,0,0,1-4.044,4.077m5.21-8.774h0.143a0.852,0.852,0,0,0,.848-0.855V19.8a0.852,0.852,0,0,0-.848-0.856H30.835a0.852,0.852,0,0,0-.848.856v0.144a0.852,0.852,0,0,0,.848.855"/>
</svg>
