<svg xmlns="http://www.w3.org/2000/svg" width="68" height="68" viewBox="0 0 68 68">
  <defs>
    <style>
      .cls-1 {
        fill: #fffad4;
        fill-rule: evenodd;
      }
    </style>
  </defs>
  <path id="thumbs_up" data-name="thumbs up" class="cls-1" d="M26.274,53.454a12.63,12.63,0,0,1-.075,1.387l3.275-1.5-0.162-2.584A27.11,27.11,0,0,1,33.6,48.241c0.008,0,.008,0,0.008,0l0.216-.029c3.079-.433,5.868-0.277,8.974-0.58,2.041-.2,4.874-0.847,4.957-3.192a1.289,1.289,0,0,1,.672-1.354,1.949,1.949,0,0,0,.79-1.3c0.218-.816-0.2-1.674-0.153-2.49,0.04-.843.669-1.3,0.768-2.139,0.151-1.321-.847-2.137-0.815-3.42a5.678,5.678,0,0,0-.024-2.45,3.984,3.984,0,0,0-2.18-2.01c-1.293-.566-2.553-0.069-3.826-0.4l-2.6-.68c-1.829-.476-1.091-1.471-0.492-2.883,1.343-3.168,3.333-6.788,1.139-10.052-0.7-1.046-1.952-2.258-3.009-.82-0.323.438-.074,1.424-0.133,1.954a15.407,15.407,0,0,1-.732,3.154c-1.1,3.168-3.8,5.752-5.29,8.763-1.755,3.542-2.936,6.881-6.562,8.943-0.48.277-.968,0.529-1.458,0.775l-1.17-.354-7.714,2.743A13.342,13.342,0,0,1,26.274,53.454"/>
  <path id="circle" class="cls-1" d="M0,34A34,34,0,1,0,34,0,34.038,34.038,0,0,0,0,34Zm2.72,0A31.28,31.28,0,1,1,34,65.28,31.315,31.315,0,0,1,2.72,34Z"/>
</svg>
