<svg xmlns="http://www.w3.org/2000/svg" width="51" height="51" viewBox="0 0 51 51">
  <defs>
    <style>
      .cls-1 {
        fill: #cac5a2;
        fill-rule: evenodd;
      }
    </style>
  </defs>
  <path id="circle" class="cls-1" d="M0,25.5A25.5,25.5,0,1,0,25.5,0,25.529,25.529,0,0,0,0,25.5Zm2.04,0A23.46,23.46,0,1,1,25.5,48.96,23.487,23.487,0,0,1,2.04,25.5Z"/>
  <path id="WA" class="cls-1" d="M25.805,12.75A12.838,12.838,0,0,0,13.109,25.7a13.14,13.14,0,0,0,1.566,6.227s-1.124,4.362-1.363,5.244a12.1,12.1,0,0,0-.285,1.3,0.377,0.377,0,0,0,.4.483,5.109,5.109,0,0,0,.887-0.257l4.947-1.9a12.454,12.454,0,0,0,6.544,1.854,12.949,12.949,0,0,0,0-25.894m1.042,23.831a10.538,10.538,0,0,1-6.934-1.748,0.97,0.97,0,0,0-.891-0.1L15.741,36a0.024,0.024,0,0,1-.031-0.029l0.975-3.948a1.049,1.049,0,0,0-.117-0.775,11.081,11.081,0,0,1-1.485-5.55,10.728,10.728,0,1,1,21.443.257,10.919,10.919,0,0,1-9.678,10.627m-2.529-9.6s2.114,1.952,3.022,1.948c0.494,0,.427-0.586.884-1.162,0.52-.657,2.642.3,3.275,0.822a1.7,1.7,0,0,1,.288,2.513c-0.643.762-2.715,1.748-5.981-.257a17.126,17.126,0,0,1-2.874-2.177,15.382,15.382,0,0,1-2.075-2.388c-2.3-3.1-1.558-5.306-.883-6.039a1.621,1.621,0,0,1,2.48.027c0.576,0.586,1.734,2.637,1.148,3.234-0.514.524-1.091,0.519-1.04,1.018,0.093,0.922,1.756,2.462,1.756,2.462"/>
</svg>
