<svg xmlns="http://www.w3.org/2000/svg" width="68" height="68" viewBox="0 0 68 68">
  <defs>
    <style>
      .cls-1 {
        fill: #fffad4;
        fill-rule: evenodd;
      }
    </style>
  </defs>
  <path id="wheat" class="cls-1" d="M32.893,58c-1.392,0-.825-10.03,0-10.03s1.5,10.03,0,10.03M32.458,47.472s-8.458-2.243-6.9-9.2c0,0,8.128,2.9,6.9,9.2m0.009-6.728s-7.813-2.072-6.372-8.5c0,0,7.51,2.676,6.372,8.5m0.007-6.074s-7.342-1.946-5.987-7.989c0,0,7.056,2.514,5.987,7.989m0-5.84s-7.127-1.89-5.812-7.756c0,0,6.85,2.441,5.812,7.756m0.009-5.7s-6.569-1.742-5.357-7.149c0,0,6.314,2.25,5.357,7.149m1.056,24.343s8.457-2.243,6.9-9.2c0,0-8.129,2.9-6.9,9.2m-0.01-6.728s7.814-2.072,6.372-8.5c0,0-7.509,2.676-6.372,8.5M33.526,34.67s7.342-1.946,5.987-7.989c0,0-7.056,2.514-5.987,7.989m0-5.84s7.126-1.89,5.812-7.756c0,0-6.85,2.441-5.812,7.756m-0.009-5.7s6.568-1.742,5.357-7.149c0,0-6.313,2.25-5.357,7.149m-0.728-4.065s-4.6-4.485,0-9.065c0,0,4.927,4.672,0,9.065"/>
  <path id="circle" class="cls-1" d="M0,34A34,34,0,1,0,34,0,34.038,34.038,0,0,0,0,34Zm2.72,0A31.28,31.28,0,1,1,34,65.28,31.315,31.315,0,0,1,2.72,34Z"/>
</svg>
