<svg xmlns="http://www.w3.org/2000/svg" width="51" height="51" viewBox="0 0 51 51">
  <defs>
    <style>
      .cls-1 {
        fill: #cac5a2;
        fill-rule: evenodd;
      }
    </style>
  </defs>
  <path id="FB" class="cls-1" d="M26.469,18.621a2.48,2.48,0,0,1,2.692-2.758,3.559,3.559,0,0,1,1.566.358l1.523-3.3A8.1,8.1,0,0,0,28.717,12c-3.624,0-7.209,2.271-7.209,7.045v0.994H18.75v3.932h2.758V39.75h4.961V23.971h4.367V20.039H26.469V18.621Z"/>
  <path id="circle" class="cls-1" d="M0,25.5A25.5,25.5,0,1,0,25.5,0,25.529,25.529,0,0,0,0,25.5Zm2.04,0A23.46,23.46,0,1,1,25.5,48.96,23.487,23.487,0,0,1,2.04,25.5Z"/>
</svg>
