<svg xmlns="http://www.w3.org/2000/svg" width="51" height="51" viewBox="0 0 51 51">
  <defs>
    <style>
      .cls-1 {
        fill: #cac5a2;
        fill-rule: evenodd;
      }
    </style>
  </defs>
  <path id="circle" class="cls-1" d="M0,25.5A25.5,25.5,0,1,0,25.5,0,25.529,25.529,0,0,0,0,25.5Zm2.04,0A23.46,23.46,0,1,1,25.5,48.96,23.487,23.487,0,0,1,2.04,25.5Z"/>
  <path id="YT" class="cls-1" d="M33.265,16.5H18.485a5.754,5.754,0,0,0-5.734,5.774v7.2a5.755,5.755,0,0,0,5.734,5.774h14.78A5.755,5.755,0,0,0,39,29.476v-7.2A5.755,5.755,0,0,0,33.265,16.5m-3.181,9.746-7.9,5.532a0.449,0.449,0,0,1-.7-0.371V20.343a0.449,0.449,0,0,1,.7-0.371l7.9,5.532a0.454,0.454,0,0,1,0,.742"/>
</svg>
